<?xml version="1.0" encoding="UTF-8" standalone="no"?>
<!DOCTYPE svg PUBLIC "-//W3C//DTD SVG 1.1//EN" "http://www.w3.org/Graphics/SVG/1.1/DTD/svg11.dtd">
<svg xmlns="http://www.w3.org/2000/svg" version="1.1" viewBox="0 0 1637 931">
<rect fill="#006064" x="-23.09" y="-330.74" transform="translate(818.74,301.93) rotate(25.2)" width="46.18" height="661.48" rx="22.96"/>
<path fill="#ff9800" d="
  M 635.59 421.75
  L 719.71 421.75
  A 1.00 1.00 0.0 0 1 720.61 423.17
  L 706.63 452.92
  A 1.00 1.00 0.0 0 1 705.72 453.50
  Q 659.73 453.50 613.50 453.48
  C 604.73 453.47 597.17 447.05 596.98 438.20
  Q 596.92 435.45 598.84 428.95
  C 603.26 413.95 607.37 396.68 613.64 383.33
  Q 628.71 351.27 660.51 333.90
  A 1.00 1.00 0.0 0 0 660.80 332.38
  Q 641.96 309.93 640.58 281.71
  Q 639.48 259.21 644.57 234.16
  C 653.91 188.14 674.33 143.67 702.18 105.94
  C 740.45 54.09 799.88 13.93 865.57 46.37
  Q 878.30 52.65 889.54 61.24
  A 1.00 1.00 0.0 0 1 889.84 62.46
  L 876.85 90.20
  A 1.00 1.00 0.0 0 1 875.30 90.54
  Q 865.73 82.48 854.79 76.43
  C 788.21 39.58 731.72 111.48 704.69 161.43
  C 688.76 190.86 677.12 223.76 673.13 257.07
  Q 671.48 270.94 672.26 280.50
  Q 672.73 286.25 674.33 291.79
  Q 674.86 293.63 675.79 291.96
  Q 681.76 281.31 692.11 274.57
  C 704.41 266.57 718.30 261.81 732.55 258.71
  Q 764.73 251.72 799.76 251.05
  A 1.00 1.00 0.0 0 1 800.69 252.47
  L 740.84 380.09
  A 1.01 0.99 -68.2 0 1 739.63 380.62
  Q 712.70 371.93 688.78 356.82
  A 1.01 1.00 -38.1 0 0 687.93 356.72
  Q 654.97 367.84 640.99 399.79
  Q 638.46 405.57 634.62 420.50
  A 1.00 1.00 0.0 0 0 635.59 421.75
  Z"
/>
<path fill="#ff9800" d="
  M 601.91 505.67
  C 608.15 530.78 573.71 545.41 559.83 523.38
  Q 490.83 413.78 421.80 304.20
  C 414.58 292.73 407.98 283.31 416.30 270.06
  Q 438.47 234.77 554.33 51.02
  Q 558.97 43.66 562.35 40.99
  C 571.27 33.92 585.88 34.98 593.53 43.86
  C 600.59 52.04 601.30 63.16 595.45 72.44
  Q 529.12 177.62 463.21 282.22
  A 1.00 0.99 45.4 0 0 463.21 283.29
  Q 530.45 390.01 596.13 494.24
  Q 600.99 501.96 601.91 505.67
  Z"
/>
<path fill="#ff9800" d="
  M 1075.22 529.40
  C 1057.22 543.57 1031.56 524.89 1039.52 503.06
  Q 1040.37 500.73 1045.83 492.06
  Q 1110.05 390.18 1174.23 288.27
  A 1.00 1.00 0.0 0 0 1174.23 287.21
  Q 1106.88 180.26 1039.54 73.40
  Q 1036.35 68.34 1035.51 64.63
  C 1030.54 42.75 1056.85 26.89 1073.64 42.45
  Q 1075.96 44.60 1079.71 50.54
  Q 1150.36 162.64 1220.99 274.76
  C 1227.92 285.76 1225.03 294.28 1218.30 304.96
  Q 1150.52 412.57 1082.71 520.15
  Q 1078.49 526.83 1075.22 529.40
  Z"
/>
<path fill="#ff9800" d="
  M 1000.43 420.53
  Q 997.44 407.42 994.51 400.54
  Q 980.64 367.94 947.21 356.74
  A 1.01 1.00 38.1 0 0 946.36 356.84
  C 908.52 380.57 861.62 393.13 816.68 397.80
  Q 814.92 397.98 815.67 396.38
  L 881.77 255.48
  A 1.00 1.00 0.0 0 1 882.80 254.91
  C 901.85 257.42 922.14 262.48 939.02 271.91
  Q 951.71 279.00 959.10 291.35
  Q 960.23 293.24 960.91 291.15
  Q 962.91 285.04 962.99 278.25
  C 963.49 236.67 948.51 193.18 928.27 157.32
  A 1.02 1.01 -47.2 0 1 928.24 156.40
  L 943.54 123.83
  Q 944.31 122.19 945.29 123.72
  Q 971.22 164.27 984.84 210.47
  Q 993.09 238.44 994.63 267.55
  C 995.73 288.32 991.50 309.73 979.16 326.16
  Q 975.77 330.68 974.43 332.53
  A 1.00 1.00 0.0 0 0 974.76 333.99
  Q 1006.28 351.17 1021.33 382.83
  C 1027.97 396.79 1032.18 414.73 1036.81 430.30
  C 1039.47 439.27 1037.94 448.34 1028.47 452.09
  Q 1024.87 453.51 1017.34 453.51
  Q 903.90 453.49 790.44 453.50
  A 1.00 1.00 0.0 0 1 789.54 452.08
  L 803.50 422.32
  A 1.00 1.00 0.0 0 1 804.40 421.75
  L 999.45 421.75
  A 1.00 1.00 0.0 0 0 1000.43 420.53
  Z"
/>
<path fill="#006064" d="
  M 351.75 626.27
  C 433.59 626.42 432.44 742.82 352.06 742.98
  Q 328.04 743.03 304.00 742.99
  A 1.00 1.00 0.0 0 1 303.00 741.99
  L 303.00 627.26
  A 1.00 1.00 0.0 0 1 304.00 626.26
  Q 327.79 626.23 351.75 626.27
  Z
  M 372.81 672.23
  C 370.19 665.96 364.57 661.75 358.22 659.74
  Q 351.69 657.67 340.91 658.60
  A 1.00 1.00 0.0 0 0 340.00 659.60
  L 340.00 709.06
  A 1.00 0.99 -86.4 0 0 340.87 710.05
  Q 348.58 711.05 355.95 709.40
  C 373.71 705.43 379.28 687.68 372.81 672.23
  Z"
/>
<path fill="#006064" d="
  M 736.20 705.00
  L 759.59 626.49
  A 0.34 0.34 0.0 0 1 759.91 626.25
  L 798.38 626.25
  A 0.34 0.34 0.0 0 1 798.70 626.70
  L 759.69 742.77
  A 0.34 0.34 0.0 0 1 759.37 743.00
  L 712.26 743.00
  A 0.34 0.34 0.0 0 1 711.94 742.77
  L 672.92 626.70
  A 0.34 0.34 0.0 0 1 673.24 626.25
  L 711.72 626.25
  A 0.34 0.34 0.0 0 1 712.04 626.49
  L 735.55 705.00
  A 0.34 0.34 0.0 0 0 736.20 705.00
  Z"
/>
<path fill="#006064" d="
  M 899.33 737.42
  C 872.06 753.51 833.26 741.43 827.23 707.75
  C 822.67 682.24 833.06 657.34 859.76 650.51
  C 887.14 643.50 915.77 656.85 920.53 686.44
  Q 921.78 694.21 920.92 702.11
  A 1.01 1.00 3.2 0 1 919.92 703.00
  L 863.07 703.00
  A 1.00 1.00 0.0 0 0 862.07 704.08
  Q 862.33 707.41 863.93 710.33
  C 867.61 717.07 876.10 715.92 880.09 709.94
  A 1.01 1.00 -72.8 0 1 880.92 709.50
  L 918.18 709.50
  A 1.01 1.00 7.7 0 1 919.15 710.77
  Q 914.22 728.63 899.33 737.42
  Z
  M 878.85 678.74
  Q 878.76 678.69 878.67 678.67
  Q 866.40 675.12 862.71 685.67
  A 1.00 1.00 0.0 0 0 863.66 687.00
  L 882.93 687.00
  A 1.00 1.00 0.0 0 0 883.92 685.90
  Q 883.45 681.14 878.85 678.74
  Z"
/>
<path fill="#006064" d="
  M 1017.25 659.67
  L 1017.25 651.00
  A 1.00 1.00 0.0 0 1 1018.25 650.00
  L 1052.75 650.00
  A 1.00 1.00 0.0 0 1 1053.75 651.00
  Q 1053.75 698.02 1053.75 745.25
  Q 1053.75 751.99 1051.17 759.72
  C 1046.41 773.95 1036.60 783.38 1021.96 786.88
  C 1005.64 790.78 984.92 789.06 971.35 778.72
  Q 958.25 768.73 955.92 750.88
  A 1.00 1.00 0.0 0 1 956.91 749.75
  L 991.02 749.75
  A 1.01 0.99 -10.8 0 1 991.95 750.37
  C 995.10 758.21 1008.03 758.80 1013.43 753.55
  C 1017.01 750.08 1017.06 745.75 1017.24 740.00
  Q 1017.35 736.77 1017.24 733.55
  Q 1017.17 731.27 1015.81 733.09
  Q 1011.86 738.35 1006.21 741.17
  Q 1000.65 743.94 992.88 744.20
  C 940.62 745.92 939.45 650.68 990.22 648.95
  Q 998.73 648.66 1004.96 651.40
  Q 1011.40 654.22 1015.81 660.15
  Q 1017.25 662.08 1017.25 659.67
  Z
  M 1003.8674 712.2700
  A 15.70 13.58 89.9 0 0 1017.4200 696.5463
  A 15.70 13.58 89.9 0 0 1003.8126 680.8700
  A 15.70 13.58 89.9 0 0 990.2600 696.5937
  A 15.70 13.58 89.9 0 0 1003.8674 712.2700
  Z"
/>
<path fill="#006064" d="
  M 1153.25 659.67
  L 1153.25 651.00
  A 1.00 1.00 0.0 0 1 1154.25 650.00
  L 1188.75 650.00
  A 1.00 1.00 0.0 0 1 1189.75 651.00
  L 1189.75 741.99
  A 1.01 1.00 -90.0 0 1 1188.75 743.00
  L 1154.24 743.00
  A 1.00 1.00 0.0 0 1 1153.24 742.00
  L 1153.27 733.64
  Q 1153.28 731.29 1151.84 733.15
  Q 1143.93 743.34 1131.20 744.15
  C 1109.52 745.52 1094.88 731.54 1090.68 711.31
  C 1085.39 685.80 1093.87 650.06 1126.22 648.95
  Q 1134.73 648.66 1140.96 651.40
  Q 1147.40 654.22 1151.81 660.15
  Q 1153.25 662.08 1153.25 659.67
  Z
  M 1139.8674 712.2700
  A 15.70 13.58 89.9 0 0 1153.4200 696.5463
  A 15.70 13.58 89.9 0 0 1139.8126 680.8700
  A 15.70 13.58 89.9 0 0 1126.2600 696.5937
  A 15.70 13.58 89.9 0 0 1139.8674 712.2700
  Z"
/>
<path fill="#006064" d="
  M 1279.56 681.60
  C 1275.11 669.72 1258.78 675.13 1264.72 681.15
  Q 1266.37 682.82 1268.64 683.37
  C 1283.92 687.06 1306.40 688.42 1311.32 707.25
  C 1316.25 726.15 1302.43 739.90 1284.68 743.16
  C 1268.10 746.21 1248.55 743.44 1236.06 731.46
  Q 1227.86 723.60 1226.52 711.86
  A 1.00 0.99 -3.3 0 1 1227.51 710.75
  L 1260.84 710.75
  A 1.00 0.99 -7.0 0 1 1261.81 711.50
  Q 1263.52 718.03 1271.01 718.68
  C 1273.98 718.93 1277.41 718.59 1278.20 715.22
  C 1279.19 710.97 1273.07 709.49 1269.85 708.87
  C 1251.62 705.35 1231.35 702.10 1230.51 681.48
  C 1229.09 646.78 1277.39 641.29 1298.09 656.99
  Q 1309.49 665.64 1312.14 681.08
  A 1.00 1.00 0.0 0 1 1311.16 682.25
  L 1280.50 682.25
  A 1.01 1.00 79.4 0 1 1279.56 681.60
  Z"
/>
<path fill="#006064" d="
  M 488.43 664.73
  Q 495.11 656.30 504.54 652.05
  Q 509.77 649.70 516.20 649.35
  A 1.00 0.99 88.4 0 1 517.25 650.35
  L 517.25 687.46
  A 1.01 1.00 -0.3 0 1 516.25 688.46
  Q 509.24 688.46 502.32 688.92
  C 493.93 689.49 487.06 693.45 487.03 702.76
  Q 486.97 722.36 487.01 742.00
  A 1.00 1.00 0.0 0 1 486.01 743.00
  L 451.00 743.00
  A 1.00 1.00 0.0 0 1 450.00 742.00
  L 450.00 651.00
  A 1.00 1.00 0.0 0 1 451.00 650.00
  L 486.00 650.00
  A 1.00 1.00 0.0 0 1 487.00 651.00
  L 487.00 664.23
  Q 487.00 666.53 488.43 664.73
  Z"
/>
<path fill="#006064" d="
  M 551.01 736.03
  C 546.45 729.57 547.52 719.52 553.12 713.91
  C 565.24 701.78 591.26 708.16 590.22 727.47
  C 589.17 746.86 560.65 749.70 551.01 736.03
  Z"
/>
<path fill="#ff9800" d="
  M 926.51 803.37
  L 949.39 793.61
  A 0.43 0.43 0.0 0 1 949.99 794.01
  L 950.00 808.09
  A 0.43 0.43 0.0 0 1 949.72 808.49
  L 926.83 816.85
  A 0.43 0.43 0.0 0 1 926.25 816.45
  L 926.25 803.76
  A 0.43 0.43 0.0 0 1 926.51 803.37
  Z"
/>
<path fill="#ff9800" d="
  M 574.68 808.58
  Q 574.56 808.53 574.44 808.48
  A 0.33 0.33 0.0 0 1 574.25 808.18
  L 574.25 794.99
  A 1.00 1.00 0.0 0 1 575.64 794.07
  L 597.39 803.28
  A 1.00 1.00 0.0 0 1 598.00 804.20
  L 598.00 815.63
  A 1.00 1.00 0.0 0 1 596.67 816.57
  Q 585.55 812.70 574.68 808.58
  Z"
/>
<ellipse fill="#ff9800" cx="0.00" cy="0.00" transform="translate(1024.82,807.10) rotate(0.2)" rx="11.79" ry="10.20"/>
<ellipse fill="#ff9800" cx="0.00" cy="0.00" transform="translate(1449.81,807.10) rotate(0.2)" rx="11.79" ry="10.20"/>
<ellipse fill="#ff9800" cx="0.00" cy="0.00" transform="translate(1534.82,807.10) rotate(0.2)" rx="11.79" ry="10.20"/>
<path fill="#ff9800" d="
  M 19.47 821.00
  L 6.90 820.99
  A 0.53 0.53 0.0 0 1 6.37 820.49
  L 5.18 800.06
  A 0.53 0.53 0.0 0 1 5.71 799.50
  L 20.62 799.50
  A 0.53 0.53 0.0 0 1 21.15 800.06
  L 20.00 820.50
  A 0.53 0.53 0.0 0 1 19.47 821.00
  Z"
/>
<path fill="#ff9800" d="
  M 40.30 821.00
  L 27.38 821.00
  A 0.34 0.34 0.0 0 1 27.04 820.68
  L 25.75 799.86
  A 0.34 0.34 0.0 0 1 26.09 799.50
  L 41.43 799.50
  A 0.34 0.34 0.0 0 1 41.77 799.86
  L 40.64 820.68
  A 0.34 0.34 0.0 0 1 40.30 821.00
  Z"
/>
<path fill="#ff9800" d="
  M 1610.46 821.00
  L 1597.92 820.99
  A 0.56 0.56 0.0 0 1 1597.36 820.46
  L 1596.19 800.09
  A 0.56 0.56 0.0 0 1 1596.75 799.50
  L 1611.55 799.50
  A 0.56 0.56 0.0 0 1 1612.11 800.09
  L 1611.02 820.47
  A 0.56 0.56 0.0 0 1 1610.46 821.00
  Z"
/>
<path fill="#ff9800" d="
  M 1631.21 821.00
  L 1618.46 821.00
  A 0.42 0.42 0.0 0 1 1618.05 820.61
  L 1616.76 799.95
  A 0.42 0.42 0.0 0 1 1617.18 799.50
  L 1632.36 799.50
  A 0.42 0.42 0.0 0 1 1632.78 799.94
  L 1631.63 820.60
  A 0.42 0.42 0.0 0 1 1631.21 821.00
  Z"
/>
<path fill="#ff9800" d="
  M 1579.95 842.32
  Q 1579.84 844.23 1579.67 846.33
  A 1.01 1.00 -87.5 0 1 1578.67 847.25
  L 1563.13 847.25
  A 1.00 0.99 -1.5 0 1 1562.13 846.31
  L 1559.88 804.80
  A 1.00 0.99 -1.6 0 1 1560.88 803.75
  L 1580.87 803.75
  A 1.00 1.00 0.0 0 1 1581.87 804.79
  Q 1581.02 823.63 1579.95 842.32
  Z"
/>
<path fill="#ff9800" d="
  M 94.58 808.00
  L 115.55 808.00
  A 0.31 0.31 0.0 0 1 115.84 808.41
  L 94.17 872.79
  A 0.31 0.31 0.0 0 1 93.88 873.00
  L 68.05 873.00
  A 0.31 0.31 0.0 0 1 67.76 872.79
  L 46.10 808.41
  A 0.31 0.31 0.0 0 1 46.39 808.00
  L 67.38 808.00
  A 0.31 0.31 0.0 0 1 67.68 808.22
  L 80.72 851.76
  A 0.31 0.31 0.0 0 0 81.32 851.76
  L 94.28 808.22
  A 0.31 0.31 0.0 0 1 94.58 808.00
  Z"
/>
<path fill="#ff9800" d="
  M 181.75 820.25
  L 181.75 809.75
  A 1.00 1.00 0.0 0 1 182.75 808.75
  L 201.25 808.75
  A 1.00 1.00 0.0 0 1 202.25 809.75
  L 202.25 820.25
  A 1.00 1.00 0.0 0 0 203.25 821.25
  L 209.50 821.25
  A 1.00 1.00 0.0 0 1 210.50 822.25
  L 210.50 837.25
  A 1.00 1.00 0.0 0 1 209.50 838.25
  L 203.25 838.25
  A 1.00 1.00 0.0 0 0 202.25 839.25
  L 202.24 853.01
  Q 202.24 855.63 205.07 855.68
  L 209.77 855.77
  A 1.00 1.00 0.0 0 1 210.75 856.77
  L 210.75 871.91
  A 1.00 1.00 0.0 0 1 209.81 872.91
  Q 201.16 873.47 196.97 872.54
  Q 182.35 869.27 181.88 854.03
  Q 181.65 846.68 181.70 839.26
  A 1.00 0.99 -89.7 0 0 180.71 838.25
  L 176.25 838.25
  A 1.00 1.00 0.0 0 1 175.25 837.25
  L 175.25 822.25
  A 1.00 1.00 0.0 0 1 176.25 821.25
  L 180.75 821.25
  A 1.00 1.00 0.0 0 0 181.75 820.25
  Z"
/>
<path fill="#ff9800" d="
  M 1385.69 838.25
  L 1381.25 838.25
  A 1.00 1.00 0.0 0 1 1380.25 837.25
  L 1380.25 822.25
  A 1.00 1.00 0.0 0 1 1381.25 821.25
  L 1385.75 821.25
  A 1.00 1.00 0.0 0 0 1386.75 820.25
  L 1386.75 809.75
  A 1.00 1.00 0.0 0 1 1387.75 808.75
  L 1406.25 808.75
  A 1.00 1.00 0.0 0 1 1407.25 809.75
  L 1407.25 820.25
  A 1.00 1.00 0.0 0 0 1408.25 821.25
  L 1414.50 821.25
  A 1.00 1.00 0.0 0 1 1415.50 822.25
  L 1415.50 837.25
  A 1.00 1.00 0.0 0 1 1414.50 838.25
  L 1408.25 838.25
  A 1.00 1.00 0.0 0 0 1407.25 839.25
  L 1407.25 853.01
  Q 1407.25 855.63 1410.07 855.68
  L 1414.77 855.77
  A 1.00 1.00 0.0 0 1 1415.75 856.77
  L 1415.75 871.91
  A 1.01 1.00 -2.2 0 1 1414.82 872.91
  Q 1405.95 873.50 1401.73 872.51
  Q 1387.36 869.11 1386.90 854.03
  Q 1386.68 846.68 1386.69 839.25
  A 1.00 1.00 0.0 0 0 1385.69 838.25
  Z"
/>
<path fill="#ff9800" d="
  M 159.89 869.87
  C 144.37 878.42 122.17 872.26 118.38 853.26
  C 111.43 818.40 160.74 808.70 170.79 837.22
  C 175.00 849.16 171.52 863.47 159.89 869.87
  Z
  M 145.0828 856.1699
  A 9.01 6.79 90.3 0 0 151.9199 847.1956
  A 9.01 6.79 90.3 0 0 145.1772 838.1501
  A 9.01 6.79 90.3 0 0 138.3401 847.1244
  A 9.01 6.79 90.3 0 0 145.0828 856.1699
  Z"
/>
<path fill="#ff9800" d="
  M 307.92 861.39
  C 298.66 875.98 273.37 878.79 263.55 863.22
  C 254.78 849.32 257.97 828.74 274.87 822.53
  C 287.98 817.71 304.60 822.18 309.82 836.22
  Q 312.22 842.68 311.43 849.86
  A 1.01 1.00 3.2 0 1 310.43 850.75
  L 279.78 850.75
  A 1.00 1.00 0.0 0 0 278.78 851.75
  C 278.78 857.32 285.46 859.55 288.79 854.92
  A 1.00 0.99 -72.0 0 1 289.60 854.50
  L 309.10 854.50
  A 1.01 1.00 -85.6 0 1 310.09 855.66
  Q 309.59 858.75 307.92 861.39
  Z
  M 288.80 837.72
  Q 282.30 834.46 279.45 840.30
  A 1.00 1.00 0.0 0 0 280.35 841.74
  L 289.79 841.76
  A 1.00 1.00 0.0 0 0 290.79 840.70
  Q 290.67 838.66 288.80 837.72
  Z"
/>
<path fill="#ff9800" d="
  M 352.18 835.51
  Q 350.18 838.79 353.83 839.69
  C 364.21 842.25 378.46 843.09 378.51 857.16
  C 378.54 864.34 373.94 869.58 367.45 871.89
  C 358.26 875.15 346.60 873.91 338.57 868.45
  Q 332.34 864.22 331.13 856.15
  A 1.00 0.99 85.5 0 1 332.11 855.00
  L 349.51 855.00
  A 0.99 0.99 0.0 0 1 350.43 855.62
  C 354.06 864.43 365.10 856.41 356.94 854.42
  Q 350.74 852.92 344.52 851.47
  C 333.47 848.91 329.75 836.87 336.46 828.18
  C 342.31 820.61 354.92 819.33 363.53 821.71
  Q 376.03 825.18 378.35 838.07
  A 1.00 1.00 0.0 0 1 377.37 839.25
  L 361.47 839.25
  A 1.00 1.00 0.0 0 1 360.55 838.64
  Q 358.41 833.61 352.79 835.07
  A 1.04 1.03 -80.6 0 0 352.18 835.51
  Z"
/>
<path fill="#ff9800" d="
  M 469.29 852.34
  C 470.99 857.16 475.96 857.82 478.30 852.83
  A 1.00 0.99 -77.3 0 1 479.20 852.25
  L 498.59 852.25
  A 1.01 1.00 5.0 0 1 499.58 853.43
  Q 498.36 860.10 494.24 864.94
  C 482.34 878.91 457.08 875.86 449.94 858.37
  C 444.71 845.55 448.96 828.90 462.30 823.06
  C 470.59 819.42 481.19 819.90 488.84 824.71
  Q 497.33 830.05 499.70 840.79
  A 1.00 0.99 -6.2 0 1 498.72 842.00
  L 479.13 842.00
  A 1.01 1.00 75.3 0 1 478.25 841.48
  Q 475.55 836.48 471.89 838.66
  C 467.69 841.16 467.90 848.37 469.29 852.34
  Z"
/>
<path fill="#ff9800" d="
  M 525.26 852.23
  C 526.92 857.05 531.88 857.97 534.24 852.83
  A 1.00 0.98 11.8 0 1 535.15 852.25
  L 554.63 852.25
  A 1.00 1.00 0.0 0 1 555.61 853.46
  Q 552.14 869.58 536.28 873.03
  C 513.26 878.04 498.02 857.04 505.80 836.28
  C 511.47 821.17 531.10 816.44 544.40 824.44
  Q 553.26 829.76 555.70 840.79
  A 1.00 0.99 -6.2 0 1 554.72 842.00
  L 535.13 842.00
  A 1.01 1.00 75.3 0 1 534.25 841.48
  Q 531.55 836.48 527.89 838.66
  C 523.73 841.14 523.89 848.28 525.26 852.23
  Z"
/>
<path fill="#ff9800" d="
  M 565.48 864.68
  Q 565.43 864.64 565.39 864.58
  C 555.90 851.60 558.38 829.92 574.30 823.03
  C 582.12 819.65 592.21 819.85 599.79 823.94
  Q 613.98 831.60 612.41 849.84
  A 1.00 1.00 0.0 0 1 611.41 850.75
  L 580.79 850.75
  A 1.00 0.99 -0.6 0 0 579.79 851.76
  C 579.86 857.24 586.43 859.61 589.71 854.92
  A 1.01 1.00 17.6 0 1 590.53 854.50
  L 610.11 854.50
  A 1.00 1.00 0.0 0 1 611.08 855.74
  Q 609.42 862.58 605.06 866.33
  C 593.13 876.59 576.61 876.18 565.48 864.68
  Z
  M 589.78 837.75
  Q 583.30 834.47 580.45 840.30
  A 1.00 1.00 0.0 0 0 581.35 841.74
  L 590.83 841.75
  A 1.00 0.99 -2.6 0 0 591.83 840.66
  Q 591.63 838.69 589.78 837.75
  Z"
/>
<path fill="#ff9800" d="
  M 626.03 849.83
  Q 616.20 842.61 620.44 831.64
  C 625.12 819.54 644.30 818.51 653.94 823.29
  Q 662.59 827.57 664.40 838.08
  A 1.00 0.99 -5.1 0 1 663.42 839.25
  L 647.43 839.25
  A 1.00 0.99 -10.2 0 1 646.50 838.61
  C 643.24 830.07 632.12 837.80 640.59 839.86
  C 651.22 842.43 666.94 844.06 664.40 859.84
  C 661.63 877.04 634.94 875.54 624.57 868.47
  Q 618.41 864.27 617.13 856.15
  A 1.00 1.00 0.0 0 1 618.12 855.00
  L 635.51 855.00
  A 1.00 1.00 0.0 0 1 636.44 855.63
  C 638.88 861.81 648.80 860.00 644.92 855.25
  A 0.94 0.92 -11.2 0 0 644.43 854.93
  C 638.39 853.13 631.80 852.20 626.25 849.95
  Q 626.13 849.91 626.03 849.83
  Z"
/>
<path fill="#ff9800" d="
  M 919.94 867.06
  C 907.94 856.83 909.57 834.16 922.21 825.43
  C 933.70 817.49 951.93 819.34 960.16 831.29
  Q 965.64 839.24 964.38 849.87
  A 1.00 0.99 3.2 0 1 963.39 850.75
  L 932.81 850.75
  A 1.00 1.00 0.0 0 0 931.82 851.90
  Q 932.88 859.03 939.97 856.83
  A 1.05 1.05 0.0 0 0 940.45 856.49
  L 941.74 854.88
  A 1.00 0.99 -70.7 0 1 942.52 854.50
  L 962.34 854.50
  A 1.00 1.00 0.0 0 1 963.29 855.82
  C 956.95 874.25 934.30 879.31 919.94 867.06
  Z
  M 941.78 837.75
  Q 935.24 834.44 932.45 840.31
  A 1.00 1.00 0.0 0 0 933.35 841.74
  L 942.83 841.75
  A 1.00 1.00 0.0 0 0 943.83 840.65
  Q 943.63 838.69 941.78 837.75
  Z"
/>
<path fill="#ff9800" d="
  M 1173.85 865.21
  Q 1173.79 865.15 1173.74 865.08
  Q 1165.70 854.26 1168.45 840.72
  C 1173.11 817.78 1205.60 813.34 1217.23 832.78
  Q 1221.59 840.06 1220.42 849.87
  A 1.00 1.00 0.0 0 1 1219.43 850.75
  L 1188.81 850.75
  A 1.00 1.00 0.0 0 0 1187.82 851.90
  Q 1188.88 859.03 1195.97 856.83
  A 1.05 1.05 0.0 0 0 1196.45 856.49
  L 1197.74 854.88
  A 1.00 0.99 -70.7 0 1 1198.52 854.50
  L 1218.35 854.50
  A 1.00 0.99 9.5 0 1 1219.30 855.82
  C 1212.44 875.72 1188.43 879.16 1173.85 865.21
  Z
  M 1197.78 837.75
  Q 1191.24 834.44 1188.45 840.31
  A 1.00 1.00 0.0 0 0 1189.35 841.74
  L 1198.83 841.75
  A 1.00 1.00 0.0 0 0 1199.83 840.65
  Q 1199.63 838.69 1197.78 837.75
  Z"
/>
<path fill="#ff9800" d="
  M 1276.19 864.34
  Q 1276.13 864.27 1276.08 864.20
  C 1265.66 849.05 1270.54 826.14 1290.26 821.59
  C 1302.96 818.66 1317.03 823.40 1321.77 836.00
  Q 1324.16 842.36 1323.50 849.84
  A 1.00 0.99 -87.5 0 1 1322.51 850.75
  L 1291.85 850.75
  A 1.01 1.00 -89.4 0 0 1290.85 851.74
  Q 1290.81 855.33 1293.50 856.75
  Q 1297.86 859.07 1300.77 854.93
  A 1.01 1.00 -72.4 0 1 1301.59 854.50
  L 1321.29 854.50
  A 1.00 1.00 0.0 0 1 1322.25 855.80
  C 1316.88 872.62 1298.41 877.67 1283.47 870.23
  Q 1280.48 868.73 1276.19 864.34
  Z
  M 1300.81 837.69
  Q 1294.27 834.34 1291.45 840.31
  A 1.00 1.00 0.0 0 0 1292.35 841.74
  L 1301.76 841.75
  A 1.00 1.00 0.0 0 0 1302.77 840.76
  Q 1302.77 838.69 1300.81 837.69
  Z"
/>
<path fill="#ff9800" d="
  M 1355.45 854.93
  C 1347.30 852.23 1332.08 852.28 1330.52 840.67
  C 1327.60 819.00 1358.45 815.43 1369.88 827.03
  Q 1374.25 831.46 1375.36 838.08
  A 1.00 1.00 0.0 0 1 1374.37 839.25
  L 1358.43 839.25
  A 1.00 0.99 -10.2 0 1 1357.50 838.61
  C 1354.23 830.06 1343.12 837.82 1351.61 839.87
  C 1356.35 841.01 1362.91 842.37 1366.04 843.52
  C 1376.85 847.48 1378.96 861.47 1370.18 868.64
  C 1362.19 875.16 1348.45 874.69 1339.56 870.73
  Q 1329.99 866.46 1328.14 856.18
  A 1.00 1.00 0.0 0 1 1329.12 855.00
  L 1346.57 855.00
  A 1.01 1.01 0.0 0 1 1347.51 855.64
  C 1349.92 861.92 1359.79 859.91 1355.90 855.24
  A 0.98 0.98 0.0 0 0 1355.45 854.93
  Z"
/>
<path fill="#ff9800" d="
  M 1499.29 872.99
  C 1475.81 877.82 1460.20 856.33 1469.29 835.05
  C 1475.43 820.69 1494.52 817.17 1506.95 824.02
  Q 1516.40 829.23 1518.64 840.81
  A 1.00 1.00 0.0 0 1 1517.66 842.00
  L 1498.15 842.00
  A 1.01 1.01 0.0 0 1 1497.22 841.38
  C 1495.65 837.56 1491.30 836.76 1489.04 840.33
  C 1487.06 843.45 1487.15 848.08 1487.95 851.48
  C 1489.18 856.73 1494.52 858.32 1497.40 852.79
  A 1.00 0.99 -76.1 0 1 1498.28 852.25
  L 1517.62 852.25
  A 1.01 1.00 -84.1 0 1 1518.60 853.46
  Q 1515.16 869.72 1499.29 872.99
  Z"
/>
<path fill="#ff9800" d="
  M 240.48 828.87
  Q 246.02 822.09 254.87 820.91
  A 1.00 1.00 0.0 0 1 256.00 821.90
  L 256.00 841.78
  A 1.00 0.99 -88.6 0 1 254.96 842.78
  C 245.72 842.39 238.99 841.89 239.00 853.55
  Q 239.02 862.78 238.97 872.01
  A 1.00 0.99 -0.0 0 1 237.97 873.00
  L 219.50 873.00
  A 1.00 1.00 0.0 0 1 218.50 872.00
  L 218.50 822.25
  A 1.00 1.00 0.0 0 1 219.50 821.25
  L 237.97 821.25
  A 1.01 1.00 89.4 0 1 238.97 822.24
  L 239.06 828.38
  Q 239.09 830.57 240.48 828.87
  Z"
/>
<path fill="#ff9800" d="
  M 709.80 828.28
  Q 714.23 822.07 721.95 821.22
  C 735.83 819.68 742.96 828.61 743.68 841.56
  Q 744.00 847.33 743.67 872.01
  A 1.01 1.00 -89.4 0 1 742.67 873.00
  L 724.58 873.00
  A 1.00 1.00 0.0 0 1 723.58 872.01
  Q 723.47 860.12 723.47 848.33
  Q 723.47 843.09 722.38 841.01
  C 720.13 836.72 712.08 836.38 709.80 841.22
  Q 709.04 842.85 709.03 846.54
  Q 709.02 859.26 708.93 872.01
  A 1.00 1.00 0.0 0 1 707.93 873.00
  L 689.50 873.00
  A 1.00 1.00 0.0 0 1 688.50 872.00
  L 688.50 822.25
  A 1.00 1.00 0.0 0 1 689.50 821.25
  L 707.86 821.25
  A 1.00 0.99 -3.2 0 1 708.85 822.13
  Q 709.14 824.63 708.94 827.74
  Q 708.90 828.41 709.44 828.45
  A 0.43 0.41 18.5 0 0 709.80 828.28
  Z"
/>
<path fill="#ff9800" d="
  M 867.78 829.14
  A 1.00 1.00 0.0 0 0 869.36 829.22
  Q 877.49 819.65 888.94 821.17
  C 899.83 822.61 906.14 830.64 906.36 841.46
  Q 906.68 856.72 906.41 872.02
  A 1.00 1.00 0.0 0 1 905.41 873.00
  L 887.34 873.00
  A 1.00 1.00 0.0 0 1 886.34 872.01
  Q 886.19 860.34 886.24 848.75
  Q 886.27 843.84 885.27 841.93
  C 883.02 837.59 875.12 837.22 872.65 841.70
  Q 871.71 843.41 871.74 847.45
  Q 871.82 859.73 871.67 872.01
  A 1.00 1.00 0.0 0 1 870.67 873.00
  L 852.58 873.00
  A 1.00 1.00 0.0 0 1 851.58 872.01
  Q 851.46 859.58 851.47 847.24
  Q 851.47 843.57 850.71 842.04
  C 848.51 837.58 841.01 837.40 838.38 841.10
  Q 836.98 843.07 836.99 847.70
  Q 837.03 859.86 836.97 872.00
  A 1.00 1.00 0.0 0 1 835.97 873.00
  L 817.50 873.00
  A 1.00 1.00 0.0 0 1 816.50 872.00
  L 816.50 822.25
  A 1.00 1.00 0.0 0 1 817.50 821.25
  L 836.00 821.25
  A 1.00 1.00 0.0 0 1 837.00 822.25
  L 837.00 825.93
  Q 837.00 827.94 838.38 826.48
  Q 842.62 821.99 848.90 821.17
  Q 861.14 819.59 867.78 829.14
  Z"
/>
<path fill="#ff9800" d="
  M 993.45 828.89
  Q 999.01 822.12 1007.87 820.91
  A 1.00 1.00 0.0 0 1 1009.00 821.90
  L 1009.00 841.69
  A 1.00 1.00 0.0 0 1 1008.00 842.69
  Q 1003.97 842.71 999.95 842.92
  C 993.23 843.28 991.98 847.39 992.01 853.54
  Q 992.06 862.79 991.91 872.02
  A 1.00 0.99 0.3 0 1 990.91 873.00
  L 972.50 873.00
  A 1.00 1.00 0.0 0 1 971.50 872.00
  L 971.50 822.25
  A 1.00 1.00 0.0 0 1 972.50 821.25
  L 990.98 821.25
  A 1.00 1.00 0.0 0 1 991.98 822.24
  L 992.04 828.39
  Q 992.06 830.60 993.45 828.89
  Z"
/>
<path fill="#ff9800" d="
  M 1076.51 823.46
  L 1076.50 822.26
  A 1.00 1.00 0.0 0 1 1077.50 821.25
  L 1095.75 821.25
  A 1.00 1.00 0.0 0 1 1096.75 822.25
  L 1096.75 896.75
  A 1.00 1.00 0.0 0 1 1095.75 897.75
  L 1077.48 897.75
  A 1.00 1.00 0.0 0 1 1076.48 896.75
  L 1076.53 869.78
  Q 1076.54 867.43 1074.84 869.06
  Q 1069.70 873.99 1062.01 873.49
  C 1032.25 871.55 1034.55 818.39 1066.26 821.02
  Q 1070.80 821.40 1074.93 824.29
  Q 1076.52 825.40 1076.51 823.46
  Z
  M 1068.5049 855.9165
  A 8.69 7.63 93.2 0 0 1076.6081 847.6659
  A 8.69 7.63 93.2 0 0 1069.4751 838.5635
  A 8.69 7.63 93.2 0 0 1061.3719 846.8141
  A 8.69 7.63 93.2 0 0 1068.5049 855.9165
  Z"
/>
<path fill="#ff9800" d="
  M 419.45 866.94
  Q 416.70 870.52 412.53 872.04
  C 399.13 876.93 386.88 868.38 386.36 854.31
  Q 386.00 844.65 386.34 822.23
  A 1.00 0.99 0.3 0 1 387.34 821.25
  L 405.42 821.25
  A 1.01 1.00 89.4 0 1 406.42 822.24
  Q 406.55 834.36 406.51 846.38
  Q 406.49 851.17 407.40 852.97
  C 410.94 859.99 421.04 856.67 421.00 848.74
  Q 420.94 835.50 421.08 822.24
  A 1.00 1.00 0.0 0 1 422.08 821.25
  L 440.25 821.25
  A 1.00 1.00 0.0 0 1 441.25 822.25
  L 441.25 872.00
  A 1.00 1.00 0.0 0 1 440.25 873.00
  L 422.06 873.00
  A 1.00 1.00 0.0 0 1 421.06 872.04
  L 420.88 867.40
  Q 420.80 865.18 419.45 866.94
  Z"
/>
<path fill="#ff9800" d="
  M 785.54 866.90
  Q 782.63 870.55 778.55 872.06
  C 765.05 877.03 752.84 868.31 752.34 854.18
  Q 752.01 844.77 752.34 822.24
  A 1.00 1.00 0.0 0 1 753.34 821.25
  L 771.41 821.25
  A 1.00 1.00 0.0 0 1 772.41 822.24
  Q 772.55 834.48 772.51 846.62
  Q 772.50 851.30 773.45 853.21
  C 775.76 857.84 783.83 857.81 786.08 853.04
  Q 786.96 851.19 786.97 846.70
  Q 786.98 834.47 787.07 822.24
  A 1.00 1.00 0.0 0 1 788.07 821.25
  L 806.25 821.25
  A 1.00 1.00 0.0 0 1 807.25 822.25
  L 807.25 872.00
  A 1.00 1.00 0.0 0 1 806.25 873.00
  L 788.02 873.00
  A 1.01 1.00 89.4 0 1 787.02 872.01
  L 786.97 867.39
  Q 786.94 865.15 785.54 866.90
  Z"
/>
<rect fill="#ff9800" x="1014.50" y="821.26" width="20.50" height="51.74" rx="0.43"/>
<path fill="#ff9800" d="
  M 1139.46 866.81
  Q 1133.48 874.24 1123.21 873.34
  C 1110.98 872.27 1106.37 862.13 1106.28 851.16
  Q 1106.16 836.70 1106.33 822.24
  A 1.00 1.00 0.0 0 1 1107.33 821.25
  L 1125.41 821.25
  A 1.00 1.00 0.0 0 1 1126.41 822.24
  Q 1126.56 834.36 1126.51 846.38
  Q 1126.49 851.17 1127.40 852.97
  C 1130.94 859.99 1141.04 856.67 1141.00 848.74
  Q 1140.94 835.50 1141.08 822.24
  A 1.00 1.00 0.0 0 1 1142.08 821.25
  L 1160.25 821.25
  A 1.00 1.00 0.0 0 1 1161.25 822.25
  L 1161.25 872.00
  A 1.00 1.00 0.0 0 1 1160.25 873.00
  L 1142.06 873.00
  A 1.00 1.00 0.0 0 1 1141.06 872.04
  L 1140.88 867.28
  Q 1140.80 865.14 1139.46 866.81
  Z"
/>
<rect fill="#ff9800" x="1439.50" y="821.24" width="20.50" height="51.76" rx="0.52"/>
<rect fill="#ff9800" x="1524.50" y="821.26" width="20.50" height="51.74" rx="0.43"/>
<ellipse fill="#ff9800" cx="0.00" cy="0.00" transform="translate(1570.86,863.66) rotate(-0.1)" rx="11.79" ry="10.20"/>
<path fill="#ff9800" d="
  M 1230.84 856.75
  L 1247.75 856.75
  A 0.46 0.46 0.0 0 1 1248.19 857.36
  L 1239.07 883.69
  A 0.46 0.46 0.0 0 1 1238.63 884.00
  L 1226.67 884.00
  A 0.46 0.46 0.0 0 1 1226.21 883.47
  L 1230.39 857.14
  A 0.46 0.46 0.0 0 1 1230.84 856.75
  Z"
/>
</svg>
